<?xml version="1.0" encoding="UTF-8" standalone="no"?>
<!DOCTYPE svg PUBLIC "-//W3C//DTD SVG 1.1//EN" "http://www.w3.org/Graphics/SVG/1.1/DTD/svg11.dtd">
<svg width="100%" height="100%" viewBox="0 0 318 549" version="1.1" xmlns="http://www.w3.org/2000/svg" xmlns:xlink="http://www.w3.org/1999/xlink" xml:space="preserve" xmlns:serif="http://www.serif.com/" style="fill-rule:evenodd;clip-rule:evenodd;stroke-linejoin:round;stroke-miterlimit:2;">
    <path d="M165.01,549L145.8,549C136.353,548.387 127.25,546.623 118.49,543.71C109.29,540.643 101.07,536.427 93.83,531.06C69.6,513.11 59.1,486.96 59.04,456.5C58.947,409.78 58.91,359.113 58.93,304.5C58.93,297.973 59.297,291.81 60.03,286.01C63.98,254.85 82.1,229.96 110.61,217.43C117.97,214.203 125.623,211.97 133.57,210.73C133.621,210.722 133.671,210.712 133.72,210.698C134.37,210.515 134.753,209.826 134.569,209.171C134.555,209.123 134.539,209.076 134.52,209.03C124.45,184.99 102.92,175.45 77.76,179.83C63.17,182.36 51.21,191.48 44.05,204.47C41.15,209.73 39.047,215.887 37.74,222.94C37.033,226.767 36.707,233.33 36.76,242.63C36.813,253.003 36.82,305.543 36.78,400.25C36.78,405.97 33.96,406.24 28.89,406.23C15.243,406.21 7.38,406.193 5.3,406.18C1.05,406.15 0.45,403.08 0.45,399.29L0.45,5.5C0.45,3.08 1.47,1.383 3.51,0.41C3.8,0.272 4.118,0.2 4.44,0.2L32.8,0.2C32.893,0.2 32.984,0.21 33.07,0.23C35.55,0.897 36.79,2.743 36.79,5.77C36.797,117.03 36.807,173.337 36.82,174.69C36.82,175.017 36.897,175.28 37.05,175.48C37.263,175.766 37.6,175.935 37.956,175.935C38.317,175.935 38.658,175.762 38.87,175.47C55.79,152.28 83.19,144.68 110.75,147.9C128.977,150.033 143.82,157.46 155.28,170.18C164.85,180.8 171.14,194.98 173.37,209.07C173.49,209.805 174.076,210.379 174.81,210.48C187.37,212.2 199.15,216.417 210.15,223.13C236.21,239.02 250.63,265.93 251.16,296.14C251.187,297.647 251.2,303.02 251.2,312.26C251.2,317.11 248.77,317.56 244.2,317.56C230.38,317.56 222.98,317.55 222,317.53C220.067,317.49 218.697,316.82 217.89,315.52C217.377,314.68 217.137,313.133 217.17,310.88C217.25,305.64 217.24,300.94 217.14,296.78C216.65,276.61 207.9,259.35 191.38,248.42C187.187,245.647 182.36,243.403 176.9,241.69C176.774,241.651 176.642,241.631 176.51,241.631C175.792,241.631 175.2,242.222 175.2,242.94C175.2,242.94 175.2,375.09 175.2,375.09C175.2,375.853 175.827,376.48 176.59,376.48C176.593,376.48 176.597,376.48 176.6,376.48C214.8,376.44 237.93,376.443 245.99,376.49C249.517,376.51 251.267,378.343 251.24,381.99C251.193,388.917 251.183,413.17 251.21,454.75C251.22,468.41 249.41,482.44 244.43,494.81C235.703,516.463 220.66,531.887 199.3,541.08C189.26,545.407 177.83,548.047 165.01,549ZM138.24,240.41C119.44,244.57 103.97,257.28 97.28,275.47C94.46,283.123 93.047,290.557 93.04,297.77C92.973,385.743 92.967,439.237 93.02,458.25C93.06,470.08 95.85,482.54 102.38,492.53C113.66,509.78 131.37,518.62 151.9,519.4C163.25,519.82 174.91,518.37 184.83,513.81C198.223,507.65 207.62,497.83 213.02,484.35C215.72,477.6 217.18,468.83 217.19,461.75C217.21,439.423 217.21,421.527 217.19,408.06C217.19,407.04 216.35,406.2 215.33,406.2C168.023,406.207 144.087,406.203 143.52,406.19C140.11,406.1 139.18,403.36 139.19,400.1C139.203,390.88 139.207,337.907 139.2,241.18C139.199,240.747 138.843,240.391 138.41,240.391C138.353,240.391 138.296,240.398 138.24,240.41Z" style="fill-rule:nonzero;"/>
    <path d="M300.21,341.19C300.237,336.59 298.2,333.9 294.1,333.12C291.693,332.667 289.693,332.973 288.1,334.04C283.98,336.8 284.5,342.69 288.7,345.14C294.913,348.76 298.603,350.973 299.77,351.78C308.15,357.55 306.17,369.52 296.11,371.61C293.51,372.15 289.46,371.96 286.76,370.71C282.247,368.603 280.273,364.837 280.84,359.41C280.896,358.891 281.338,358.492 281.86,358.49L284.07,358.49C284.078,358.49 284.087,358.49 284.095,358.49C284.605,358.504 285.014,358.93 285.001,359.434C285.001,359.443 285,359.451 285,359.46C284.66,366.07 290.46,369.63 296.26,367.33C300,365.85 301.58,361.37 299.66,358C298.8,356.48 297.007,354.97 294.28,353.47C287.93,349.97 281.06,347.34 280.92,339.51C280.833,334.083 283.52,330.667 288.98,329.26C291.2,328.69 295.03,328.92 297.31,329.72C302.39,331.493 304.807,335.34 304.56,341.26C304.539,341.777 304.107,342.19 303.59,342.19C303.59,342.19 301.2,342.19 301.2,342.19C300.657,342.19 300.21,341.743 300.21,341.2C300.21,341.197 300.21,341.193 300.21,341.19Z" style="fill-rule:nonzero;"/>
    <path d="M210.15,368.39L210.15,370.61C210.15,371.12 209.73,371.54 209.22,371.54L188.39,371.54C187.88,371.54 187.46,371.12 187.46,370.61L187.46,330.46C187.46,329.95 187.88,329.53 188.39,329.53L191.06,329.53C191.57,329.53 191.99,329.95 191.99,330.46L191.99,366.53C191.99,367.04 192.41,367.46 192.92,367.46L209.22,367.46C209.73,367.46 210.15,367.88 210.15,368.39Z" style="fill-rule:nonzero;"/>
    <path d="M218.67,371.59L217.12,371.59C217.07,371.59 217.02,371.587 216.97,371.58C216.361,371.497 215.927,370.933 216.009,370.33C216.016,370.279 216.026,370.229 216.04,370.18L226.9,330.5C227.071,329.881 227.638,329.449 228.28,329.45L231.08,329.45C231.762,329.448 232.366,329.909 232.55,330.57L243.35,369.85C243.383,369.971 243.399,370.095 243.399,370.22C243.399,370.993 242.763,371.63 241.99,371.63L240.87,371.63C239.904,371.63 239.049,370.981 238.79,370.05L237.04,363.69C236.963,363.401 236.699,363.199 236.4,363.2L224.18,363.2C223.219,363.201 222.372,363.847 222.12,364.77L220.67,370.06C220.43,370.96 219.606,371.591 218.67,371.59ZM229.9,337.5C229.113,337.247 228.787,337.67 228.92,338.77C228.94,338.923 228.863,339.313 228.69,339.94C227.59,343.913 225.947,350.093 223.76,358.48C223.744,358.542 223.737,358.606 223.737,358.67C223.737,359.098 224.089,359.45 224.517,359.45C224.518,359.45 224.519,359.45 224.52,359.45L234.61,359.45C234.611,359.45 234.611,359.45 234.612,359.45C235.249,359.45 235.772,358.926 235.772,358.29C235.772,358.185 235.758,358.081 235.73,357.98L230.17,337.78C230.132,337.644 230.03,337.538 229.9,337.5Z" style="fill-rule:nonzero;"/>
    <path d="M269.62,349.97C274.66,354.303 275.867,359.607 273.24,365.88C272.453,367.767 270.563,369.383 267.57,370.73C267.265,370.869 266.945,370.96 266.62,371C262.06,371.613 257.053,371.767 251.6,371.46C250.818,371.418 250.199,370.758 250.2,369.97L250.2,330.65C250.2,330.047 250.687,329.546 251.29,329.53C256.737,329.377 261.19,329.403 264.65,329.61C268.09,329.823 270.83,331.537 272.87,334.75C274.28,336.97 274.35,341.98 273.67,344.16C273.037,346.18 271.71,347.807 269.69,349.04C269.521,349.146 269.419,349.332 269.419,349.531C269.419,349.699 269.492,349.86 269.62,349.97ZM254.77,334.2L254.83,347.4C254.83,347.4 254.83,347.4 254.83,347.4C254.83,347.757 255.123,348.05 255.48,348.05C255.483,348.05 255.487,348.05 255.49,348.05L262.82,348.01C266.659,347.988 269.8,344.754 269.78,340.843C269.78,340.842 269.78,340.841 269.78,340.84L269.78,340.6C269.758,336.689 266.58,333.488 262.74,333.51L255.41,333.55C255.057,333.555 254.77,333.847 254.77,334.2ZM254.79,352.39L254.81,366.79C254.81,367.141 255.099,367.43 255.45,367.43L263,367.42C263.001,367.42 263.002,367.42 263.003,367.42C266.869,367.413 270.046,364.159 270.04,360.21L270.04,358.93C270.034,354.98 266.847,351.735 262.98,351.74L255.43,351.75C255.079,351.75 254.79,352.039 254.79,352.39Z" style="fill-rule:nonzero;"/>
    <circle cx="314.08" cy="367.58" r="3.47"/>
</svg>
