<?xml version="1.0" encoding="UTF-8" standalone="no"?>
<svg xmlns="http://www.w3.org/2000/svg" version="1.2" baseProfile="tiny" viewBox="0.00 0.00 318.00 549.00">
<path fill="#ffffff" d="
  M 165.01 549.00
  L 145.80 549.00
  Q 131.63 548.08 118.49 543.71
  Q 104.69 539.11 93.83 531.06
  C 69.60 513.11 59.10 486.96 59.04 456.50
  Q 58.90 386.42 58.93 304.50
  Q 58.93 294.71 60.03 286.01
  C 63.98 254.85 82.10 229.96 110.61 217.43
  Q 121.65 212.59 133.57 210.73
  A 1.24 1.23 74.3 0 0 134.52 209.03
  C 124.45 184.99 102.92 175.45 77.76 179.83
  C 63.17 182.36 51.21 191.48 44.05 204.47
  Q 39.70 212.36 37.74 222.94
  Q 36.68 228.68 36.76 242.63
  Q 36.84 258.19 36.78 400.25
  C 36.78 405.97 33.96 406.24 28.89 406.23
  Q 8.42 406.20 5.30 406.18
  C 1.05 406.15 0.45 403.08 0.45 399.29
  Q 0.45 27.54 0.45 5.50
  Q 0.45 1.87 3.51 0.41
  A 2.17 2.15 31.9 0 1 4.44 0.20
  L 32.80 0.20
  A 1.29 1.04 -32.6 0 1 33.07 0.23
  Q 36.79 1.23 36.79 5.77
  Q 36.80 172.66 36.82 174.69
  Q 36.82 175.18 37.05 175.48
  A 1.13 1.13 0.0 0 0 38.87 175.47
  C 55.79 152.28 83.19 144.68 110.75 147.90
  Q 138.09 151.10 155.28 170.18
  C 164.85 180.80 171.14 194.98 173.37 209.07
  A 1.70 1.69 89.3 0 0 174.81 210.48
  Q 193.65 213.06 210.15 223.13
  C 236.21 239.02 250.63 265.93 251.16 296.14
  Q 251.20 298.40 251.20 312.26
  C 251.20 317.11 248.77 317.56 244.20 317.56
  Q 223.47 317.56 222.00 317.53
  Q 219.10 317.47 217.89 315.52
  Q 217.12 314.26 217.17 310.88
  Q 217.29 303.02 217.14 296.78
  C 216.65 276.61 207.90 259.35 191.38 248.42
  Q 185.09 244.26 176.90 241.69
  A 1.31 1.31 0.0 0 0 175.20 242.94
  L 175.20 375.09
  A 1.39 1.39 0.0 0 0 176.60 376.48
  Q 233.90 376.42 245.99 376.49
  Q 251.28 376.52 251.24 381.99
  Q 251.17 392.38 251.21 454.75
  C 251.22 468.41 249.41 482.44 244.43 494.81
  Q 231.34 527.29 199.30 541.08
  Q 184.24 547.57 165.01 549.00
  Z
  M 138.24 240.41
  C 119.44 244.57 103.97 257.28 97.28 275.47
  Q 93.05 286.95 93.04 297.77
  Q 92.94 429.73 93.02 458.25
  C 93.06 470.08 95.85 482.54 102.38 492.53
  C 113.66 509.78 131.37 518.62 151.90 519.40
  C 163.25 519.82 174.91 518.37 184.83 513.81
  Q 204.92 504.57 213.02 484.35
  C 215.72 477.60 217.18 468.83 217.19 461.75
  Q 217.22 428.26 217.19 408.06
  A 1.86 1.86 0.0 0 0 215.33 406.20
  Q 144.37 406.21 143.52 406.19
  C 140.11 406.10 139.18 403.36 139.19 400.10
  Q 139.21 386.27 139.20 241.18
  A 0.79 0.79 0.0 0 0 138.24 240.41
  Z"
/>
<path fill="#ffffff" d="
  M 300.21 341.19
  Q 300.25 334.29 294.10 333.12
  Q 290.49 332.44 288.10 334.04
  C 283.98 336.80 284.50 342.69 288.70 345.14
  Q 298.02 350.57 299.77 351.78
  C 308.15 357.55 306.17 369.52 296.11 371.61
  C 293.51 372.15 289.46 371.96 286.76 370.71
  Q 279.99 367.55 280.84 359.41
  A 1.03 1.03 0.0 0 1 281.86 358.49
  L 284.07 358.49
  A 0.93 0.92 1.5 0 1 285.00 359.46
  C 284.66 366.07 290.46 369.63 296.26 367.33
  C 300.00 365.85 301.58 361.37 299.66 358.00
  Q 298.37 355.72 294.28 353.47
  C 287.93 349.97 281.06 347.34 280.92 339.51
  Q 280.79 331.37 288.98 329.26
  C 291.20 328.69 295.03 328.92 297.31 329.72
  Q 304.93 332.38 304.56 341.26
  A 0.97 0.97 0.0 0 1 303.59 342.19
  L 301.20 342.19
  A 0.99 0.99 0.0 0 1 300.21 341.19
  Z"
/>
<path fill="#ffffff" d="
  M 210.15 368.39
  L 210.15 370.61
  A 0.93 0.93 0.0 0 1 209.22 371.54
  L 188.39 371.54
  A 0.93 0.93 0.0 0 1 187.46 370.61
  L 187.46 330.46
  A 0.93 0.93 0.0 0 1 188.39 329.53
  L 191.06 329.53
  A 0.93 0.93 0.0 0 1 191.99 330.46
  L 191.99 366.53
  A 0.93 0.93 0.0 0 0 192.92 367.46
  L 209.22 367.46
  A 0.93 0.93 0.0 0 1 210.15 368.39
  Z"
/>
<path fill="#ffffff" d="
  M 218.67 371.59
  L 217.12 371.59
  A 1.12 1.11 7.7 0 1 216.04 370.18
  L 226.90 330.50
  A 1.43 1.43 0.0 0 1 228.28 329.45
  L 231.08 329.45
  A 1.53 1.52 82.2 0 1 232.55 330.57
  L 243.35 369.85
  A 1.41 1.41 0.0 0 1 241.99 371.63
  L 240.87 371.63
  A 2.16 2.16 0.0 0 1 238.79 370.05
  L 237.04 363.69
  A 0.66 0.66 0.0 0 0 236.40 363.20
  L 224.18 363.20
  A 2.14 2.13 7.6 0 0 222.12 364.77
  L 220.67 370.06
  A 2.07 2.06 7.5 0 1 218.67 371.59
  Z
  M 229.90 337.50
  Q 228.72 337.12 228.92 338.77
  Q 228.95 339.00 228.69 339.94
  Q 227.04 345.90 223.76 358.48
  A 0.78 0.78 0.0 0 0 224.52 359.45
  L 234.61 359.45
  A 1.16 1.16 0.0 0 0 235.73 357.98
  L 230.17 337.78
  A 0.41 0.39 89.6 0 0 229.90 337.50
  Z"
/>
<path fill="#ffffff" d="
  M 269.62 349.97
  Q 277.18 356.47 273.24 365.88
  Q 272.06 368.71 267.57 370.73
  A 3.35 3.10 -58.6 0 1 266.62 371.00
  Q 259.78 371.92 251.60 371.46
  A 1.49 1.48 -88.4 0 1 250.20 369.97
  L 250.20 330.65
  A 1.12 1.12 0.0 0 1 251.29 329.53
  Q 259.46 329.30 264.65 329.61
  Q 269.81 329.93 272.87 334.75
  C 274.28 336.97 274.35 341.98 273.67 344.16
  Q 272.72 347.19 269.69 349.04
  A 0.58 0.58 0.0 0 0 269.62 349.97
  Z
  M 254.77 334.20
  L 254.83 347.40
  A 0.65 0.65 0.0 0 0 255.49 348.05
  L 262.82 348.01
  A 7.13 7.00 89.7 0 0 269.78 340.84
  L 269.78 340.60
  A 7.13 7.00 89.7 0 0 262.74 333.51
  L 255.41 333.55
  A 0.65 0.65 0.0 0 0 254.77 334.20
  Z
  M 254.79 352.39
  L 254.81 366.79
  A 0.64 0.64 0.0 0 0 255.45 367.43
  L 263.00 367.42
  A 7.20 7.05 89.9 0 0 270.04 360.21
  L 270.04 358.93
  A 7.20 7.05 89.9 0 0 262.98 351.74
  L 255.43 351.75
  A 0.64 0.64 0.0 0 0 254.79 352.39
  Z"
/>
<circle fill="#ffffff" cx="314.08" cy="367.58" r="3.47"/>
</svg>
