<svg width="25" height="43" viewBox="0 0 25 43" fill="none" xmlns="http://www.w3.org/2000/svg">
<path d="M22.6574 26.7234C22.6594 26.3632 22.5057 26.1525 22.1963 26.0914C22.0146 26.0559 21.8637 26.0799 21.7434 26.1634C21.4325 26.3796 21.4717 26.8409 21.7887 27.0328C22.2576 27.3164 22.5361 27.4897 22.6242 27.5529C23.2566 28.0048 23.1072 28.9424 22.348 29.1061C22.1517 29.1484 21.8461 29.1335 21.6423 29.0356C21.3017 28.8706 21.1527 28.5756 21.1955 28.1505C21.1976 28.1308 21.2065 28.1125 21.2207 28.0992C21.2349 28.0859 21.2534 28.0785 21.2725 28.0785H21.4393C21.4488 28.0784 21.4583 28.0804 21.467 28.0843C21.4758 28.0882 21.4837 28.0938 21.4903 28.1009C21.4969 28.1081 21.502 28.1165 21.5053 28.1257C21.5086 28.1349 21.51 28.1446 21.5095 28.1544C21.4838 28.6722 21.9215 28.951 22.3593 28.7708C22.6415 28.6549 22.7608 28.304 22.6159 28.0401C22.551 27.921 22.4156 27.8028 22.2099 27.6853C21.7306 27.4111 21.2121 27.2051 21.2015 26.5919C21.195 26.1668 21.3978 25.8992 21.8099 25.789C21.9774 25.7444 22.2665 25.7624 22.4385 25.8251C22.8219 25.964 23.0043 26.2653 22.9857 26.7289C22.9849 26.7485 22.9769 26.7671 22.9632 26.7806C22.9496 26.7942 22.9314 26.8018 22.9125 26.8018H22.7321C22.7222 26.8018 22.7125 26.7997 22.7033 26.7958C22.6942 26.7918 22.686 26.7861 22.679 26.7788C22.6721 26.7715 22.6666 26.7629 22.6629 26.7534C22.6592 26.7439 22.6573 26.7337 22.6574 26.7234Z" fill="#FFFCEE"/>
<path d="M15.8604 28.8539V29.0277C15.8604 29.0471 15.853 29.0656 15.8398 29.0792C15.8267 29.0929 15.8088 29.1006 15.7902 29.1006H14.2181C14.1995 29.1006 14.1817 29.0929 14.1685 29.0792C14.1553 29.0656 14.1479 29.0471 14.1479 29.0277V25.883C14.1479 25.8735 14.1498 25.864 14.1533 25.8551C14.1568 25.8463 14.162 25.8383 14.1685 25.8315C14.175 25.8248 14.1828 25.8194 14.1913 25.8157C14.1998 25.8121 14.2089 25.8102 14.2181 25.8102H14.4196C14.4289 25.8102 14.438 25.8121 14.4465 25.8157C14.455 25.8194 14.4628 25.8248 14.4693 25.8315C14.4758 25.8383 14.481 25.8463 14.4845 25.8551C14.488 25.864 14.4898 25.8735 14.4898 25.883V28.7082C14.4898 28.7275 14.4972 28.746 14.5104 28.7597C14.5236 28.7733 14.5414 28.781 14.56 28.781H15.7902C15.8088 28.781 15.8267 28.7887 15.8398 28.8024C15.853 28.816 15.8604 28.8345 15.8604 28.8539Z" fill="#FFFCEE"/>
<path d="M16.5035 29.1045H16.3865C16.3734 29.1045 16.3606 29.1014 16.3489 29.0954C16.3372 29.0894 16.327 29.0807 16.3191 29.07C16.3112 29.0593 16.3059 29.0469 16.3034 29.0337C16.3009 29.0206 16.3015 29.007 16.305 28.9941L17.1246 25.8862C17.1309 25.8625 17.1445 25.8417 17.1633 25.8268C17.1821 25.8119 17.2051 25.8039 17.2287 25.8039H17.4401C17.4652 25.8039 17.4896 25.8124 17.5097 25.8283C17.5297 25.8441 17.5442 25.8664 17.551 25.8916L18.3661 28.9682C18.3704 28.9846 18.371 29.0018 18.3678 29.0184C18.3647 29.0351 18.3579 29.0508 18.348 29.0643C18.338 29.0777 18.3253 29.0887 18.3106 29.0962C18.2959 29.1037 18.2798 29.1076 18.2635 29.1076H18.1789C18.1433 29.1076 18.1087 29.0955 18.0804 29.0732C18.052 29.0508 18.0315 29.0195 18.0219 28.9839L17.8899 28.4857C17.887 28.4747 17.8808 28.465 17.872 28.458C17.8633 28.4511 17.8526 28.4473 17.8416 28.4474H16.9193C16.8839 28.4474 16.8495 28.4595 16.8214 28.4817C16.7933 28.5039 16.7731 28.5351 16.7638 28.5703L16.6544 28.9847C16.6456 29.0191 16.626 29.0495 16.5987 29.0711C16.5714 29.0928 16.5379 29.1045 16.5035 29.1045ZM17.351 26.4344C17.2916 26.4146 17.267 26.4477 17.277 26.5339C17.2786 26.5459 17.2728 26.5765 17.2597 26.6255C17.1767 26.9368 17.0526 27.4208 16.8876 28.0777C16.8854 28.0867 16.8853 28.0961 16.8871 28.1052C16.889 28.1144 16.8928 28.1229 16.8984 28.1302C16.9039 28.1376 16.911 28.1435 16.9191 28.1475C16.9271 28.1516 16.936 28.1537 16.945 28.1537H17.7065C17.72 28.1537 17.7333 28.1505 17.7454 28.1443C17.7575 28.138 17.7681 28.129 17.7763 28.1179C17.7845 28.1067 17.7901 28.0937 17.7926 28.08C17.7952 28.0662 17.7946 28.052 17.791 28.0385L17.3714 26.4564C17.37 26.4511 17.3674 26.4464 17.3638 26.4425C17.3602 26.4387 17.3558 26.4359 17.351 26.4344Z" fill="#FFFCEE"/>
<path d="M20.3487 27.4111C20.7291 27.7505 20.8202 28.1659 20.6219 28.6573C20.5626 28.805 20.4199 28.9317 20.194 29.0371C20.171 29.048 20.1468 29.0552 20.1223 29.0583C19.7782 29.1063 19.4003 29.1183 18.9887 29.0943C18.9601 29.0927 18.9333 29.0797 18.9136 29.058C18.8939 29.0363 18.883 29.0075 18.8831 28.9776V25.8979C18.883 25.875 18.8916 25.8531 18.907 25.8367C18.9224 25.8203 18.9433 25.8108 18.9653 25.8102C19.3764 25.7982 19.7125 25.8003 19.9736 25.8164C20.2332 25.8332 20.44 25.9673 20.594 26.219C20.7004 26.3929 20.7057 26.7853 20.6544 26.9561C20.6066 27.1143 20.5065 27.2417 20.354 27.3383C20.3482 27.3421 20.3433 27.3472 20.3398 27.3533C20.3363 27.3594 20.3342 27.3662 20.3337 27.3733C20.3332 27.3804 20.3342 27.3875 20.3369 27.3941C20.3395 27.4006 20.3435 27.4065 20.3487 27.4111ZM19.228 26.176L19.2325 27.2098C19.2325 27.2166 19.2338 27.2233 19.2363 27.2295C19.2388 27.2357 19.2425 27.2414 19.2471 27.2461C19.2518 27.2508 19.2573 27.2546 19.2633 27.2571C19.2693 27.2596 19.2758 27.2608 19.2823 27.2607L19.8355 27.2576C19.9049 27.2572 19.9735 27.2424 20.0375 27.2139C20.1014 27.1855 20.1594 27.144 20.2082 27.0918C20.257 27.0397 20.2956 26.9779 20.3217 26.91C20.3479 26.8421 20.3612 26.7694 20.3608 26.696V26.6772C20.36 26.5291 20.3035 26.3874 20.2039 26.2833C20.1043 26.1791 19.9696 26.1211 19.8295 26.1219L19.2763 26.125C19.2634 26.1252 19.2511 26.1307 19.2421 26.1402C19.233 26.1498 19.228 26.1626 19.228 26.176ZM19.2295 27.6007L19.231 28.7285C19.231 28.7418 19.2361 28.7546 19.2451 28.764C19.2542 28.7734 19.2665 28.7787 19.2793 28.7787L19.8491 28.7779C19.919 28.7778 19.9881 28.7631 20.0527 28.7347C20.1172 28.7062 20.1758 28.6646 20.2251 28.6122C20.2745 28.5597 20.3136 28.4975 20.3402 28.429C20.3669 28.3606 20.3805 28.2872 20.3804 28.2132V28.1129C20.3802 27.9634 20.324 27.82 20.224 27.7144C20.1241 27.6088 19.9887 27.5496 19.8476 27.5498L19.2778 27.5505C19.265 27.5505 19.2527 27.5558 19.2436 27.5652C19.2346 27.5746 19.2295 27.5874 19.2295 27.6007Z" fill="#FFFCEE"/>
<path d="M23.7041 29.0622C23.8488 29.0622 23.966 28.9405 23.966 28.7904C23.966 28.6403 23.8488 28.5186 23.7041 28.5186C23.5595 28.5186 23.4423 28.6403 23.4423 28.7904C23.4423 28.9405 23.5595 29.0622 23.7041 29.0622Z" fill="#FFFCEE"/>
</svg>
