<?xml version="1.0" encoding="UTF-8" standalone="no"?>
<svg xmlns="http://www.w3.org/2000/svg" version="1.2" baseProfile="tiny" viewBox="0.00 0.00 600.00 78.00">
<path fill="#363434" d="
  M 279.85 44.79
  L 266.64 44.79
  A 1.36 1.36 0.0 0 1 265.28 43.43
  L 265.28 39.54
  A 1.43 1.43 0.0 0 1 266.71 38.11
  L 286.29 38.11
  A 1.03 1.03 0.0 0 1 287.32 39.12
  Q 287.56 49.88 287.18 56.43
  C 286.57 67.16 280.01 76.07 269.22 77.50
  C 253.95 79.54 243.17 70.00 242.74 54.74
  Q 242.67 52.28 242.71 24.00
  C 242.73 13.19 248.15 3.67 259.03 0.83
  C 265.63 -0.89 273.82 0.33 279.30 4.81
  Q 287.67 11.66 287.37 24.46
  A 1.18 1.17 0.5 0 1 286.19 25.61
  L 281.76 25.61
  A 1.18 1.17 0.9 0 1 280.58 24.40
  C 280.78 16.44 277.46 9.54 269.83 7.51
  C 259.19 4.69 249.82 11.27 249.61 22.37
  Q 249.28 38.90 249.54 54.92
  Q 249.69 64.36 257.15 68.98
  C 261.76 71.84 269.32 71.74 273.83 68.84
  C 281.71 63.77 280.71 55.63 280.58 45.51
  A 0.73 0.73 0.0 0 0 279.85 44.79
  Z"
/>
<path fill="#363434" d="
  M 22.78 35.49
  Q 35.15 35.49 37.90 35.46
  A 0.44 0.44 0.0 0 0 38.34 35.02
  L 38.34 2.04
  A 1.15 1.15 0.0 0 1 39.49 0.89
  L 43.88 0.90
  A 1.24 1.23 -3.1 0 1 45.11 1.99
  Q 45.11 2.01 45.11 38.86
  Q 45.11 75.72 45.11 75.74
  A 1.24 1.23 3.1 0 1 43.88 76.83
  L 39.49 76.84
  A 1.15 1.15 0.0 0 1 38.34 75.69
  L 38.34 42.71
  A 0.44 0.44 0.0 0 0 37.90 42.27
  Q 35.15 42.23 22.78 42.23
  Q 10.40 42.23 7.65 42.27
  A 0.44 0.44 0.0 0 0 7.22 42.71
  L 7.22 75.69
  A 1.15 1.15 0.0 0 1 6.07 76.84
  L 1.68 76.83
  A 1.24 1.23 -3.1 0 1 0.45 75.74
  Q 0.45 75.72 0.45 38.86
  Q 0.45 2.01 0.45 1.99
  A 1.24 1.23 3.1 0 1 1.68 0.90
  L 6.07 0.89
  A 1.15 1.15 0.0 0 1 7.22 2.04
  L 7.22 35.02
  A 0.44 0.44 0.0 0 0 7.65 35.46
  Q 10.40 35.49 22.78 35.49
  Z"
/>
<path fill="#363434" d="
  M 411.63 29.18
  Q 411.45 41.53 411.70 62.26
  C 411.78 68.96 416.37 70.34 422.13 70.14
  A 1.23 1.22 -0.9 0 1 423.40 71.36
  L 423.40 75.41
  A 1.35 1.34 -1.1 0 1 422.10 76.75
  C 413.79 77.07 405.35 75.85 405.18 65.48
  Q 404.91 49.06 405.11 28.97
  A 0.54 0.54 0.0 0 0 404.57 28.42
  L 399.14 28.42
  A 1.29 1.28 -90.0 0 1 397.86 27.13
  L 397.86 23.48
  A 1.43 1.43 0.0 0 1 399.29 22.05
  L 404.30 22.05
  A 0.75 0.74 0.0 0 0 405.05 21.31
  L 405.05 9.46
  A 1.59 1.59 0.0 0 1 406.64 7.87
  L 410.12 7.87
  A 1.48 1.48 0.0 0 1 411.60 9.35
  L 411.60 21.55
  A 0.50 0.49 0.0 0 0 412.10 22.04
  L 422.28 22.04
  A 1.41 1.41 0.0 0 1 423.69 23.45
  L 423.69 27.07
  A 1.34 1.34 0.0 0 1 422.35 28.41
  L 412.42 28.41
  A 0.79 0.79 0.0 0 0 411.63 29.18
  Z"
/>
<path fill="#363434" d="
  M 599.85 17.48
  A 8.66 8.66 0.0 0 1 591.19 26.14
  A 8.66 8.66 0.0 0 1 582.53 17.48
  A 8.66 8.66 0.0 0 1 591.19 8.82
  A 8.66 8.66 0.0 0 1 599.85 17.48
  Z
  M 598.14 17.50
  A 6.95 6.95 0.0 0 0 591.19 10.55
  A 6.95 6.95 0.0 0 0 584.24 17.50
  A 6.95 6.95 0.0 0 0 591.19 24.45
  A 6.95 6.95 0.0 0 0 598.14 17.50
  Z"
/>
<path fill="#363434" d="
  M 593.12 18.59
  L 594.72 21.37
  A 0.53 0.53 0.0 0 1 594.26 22.16
  L 593.78 22.16
  A 1.29 1.29 0.0 0 1 592.58 21.34
  Q 591.91 19.66 590.35 18.37
  A 0.75 0.75 0.0 0 0 589.13 18.95
  L 589.13 21.59
  A 0.57 0.56 90.0 0 1 588.57 22.16
  L 588.12 22.16
  A 0.81 0.81 0.0 0 1 587.31 21.35
  L 587.31 13.72
  A 0.80 0.79 -2.8 0 1 588.03 12.93
  Q 590.30 12.71 592.59 13.05
  C 594.98 13.40 595.48 16.44 593.37 17.65
  A 0.69 0.68 60.1 0 0 593.12 18.59
  Z
  M 589.11 14.84
  L 589.11 16.42
  A 0.46 0.46 0.0 0 0 589.56 16.88
  L 590.83 16.89
  A 1.93 1.14 0.3 0 0 592.77 15.76
  L 592.77 15.54
  A 1.93 1.14 0.3 0 0 590.85 14.39
  L 589.58 14.38
  A 0.46 0.46 0.0 0 0 589.11 14.84
  Z"
/>
<path fill="#363434" d="
  M 98.46 27.29
  C 101.54 23.21 105.30 21.31 110.51 21.27
  Q 120.41 21.20 124.60 29.99
  A 0.27 0.27 0.0 0 0 125.09 30.00
  Q 129.92 20.81 140.81 21.30
  C 149.91 21.71 154.86 29.41 155.01 38.02
  Q 155.18 47.39 155.10 75.44
  A 1.49 1.48 -0.0 0 1 153.61 76.92
  L 149.88 76.92
  A 1.48 1.47 0.2 0 1 148.40 75.44
  Q 148.49 50.53 148.36 40.05
  C 148.27 32.66 143.14 26.80 135.40 28.22
  Q 130.09 29.19 127.64 34.17
  Q 126.31 36.87 126.33 44.06
  Q 126.39 63.15 126.36 75.43
  A 1.51 1.51 0.0 0 1 124.85 76.94
  L 120.94 76.92
  A 1.37 1.36 1.8 0 1 119.58 75.48
  Q 119.58 75.38 119.61 43.22
  Q 119.62 37.55 118.66 35.06
  C 116.53 29.53 111.51 26.96 105.63 28.40
  C 100.35 29.69 97.73 35.07 97.71 40.26
  Q 97.66 58.16 97.69 75.49
  A 1.44 1.43 -0.2 0 1 96.25 76.93
  L 92.32 76.93
  A 1.40 1.39 0.0 0 1 90.92 75.54
  L 90.92 23.62
  A 1.61 1.60 90.0 0 1 92.52 22.01
  L 96.25 22.01
  A 1.45 1.44 90.0 0 1 97.69 23.46
  L 97.69 27.03
  A 0.43 0.43 0.0 0 0 98.46 27.29
  Z"
/>
<path fill="#363434" d="
  M 189.24 71.67
  A 0.35 0.35 0.0 0 0 188.67 71.40
  C 187.91 72.03 186.83 73.57 185.74 74.26
  C 174.92 81.05 158.31 78.38 158.15 62.65
  Q 157.99 48.40 171.60 44.98
  C 176.15 43.83 183.34 44.42 188.72 44.36
  A 0.50 0.50 0.0 0 0 189.22 43.87
  C 189.41 37.54 189.14 29.59 181.14 28.17
  C 175.18 27.11 168.45 28.93 167.12 35.47
  A 1.28 1.27 -78.6 0 1 165.63 36.46
  L 160.82 35.54
  A 1.12 1.11 11.3 0 1 159.93 34.21
  C 161.78 25.52 169.40 21.09 177.90 21.17
  Q 190.42 21.29 194.57 31.29
  Q 196.24 35.33 196.00 45.03
  Q 195.92 48.36 196.01 75.44
  A 1.48 1.48 0.0 0 1 194.53 76.92
  L 190.55 76.92
  A 1.30 1.30 0.0 0 1 189.25 75.63
  L 189.24 71.67
  Z
  M 188.43 50.47
  Q 176.91 50.24 174.41 50.85
  Q 164.54 53.26 164.91 62.21
  C 165.47 75.74 187.66 72.99 189.11 60.89
  Q 189.48 57.85 189.20 51.22
  A 0.78 0.78 0.0 0 0 188.43 50.47
  Z"
/>
<path fill="#363434" d="
  M 207.41 27.46
  A 0.31 0.30 62.7 0 0 207.96 27.64
  Q 213.06 20.36 222.67 21.41
  C 232.10 22.45 237.16 30.18 237.19 39.24
  Q 237.21 45.71 237.22 75.45
  A 1.51 1.50 -90.0 0 1 235.72 76.96
  L 231.95 76.96
  A 1.51 1.50 -90.0 0 1 230.45 75.45
  Q 230.51 53.57 230.43 40.73
  C 230.38 34.50 226.68 28.46 220.04 28.07
  C 214.38 27.74 210.05 30.60 208.14 35.75
  Q 207.40 37.76 207.40 42.58
  Q 207.42 64.23 207.43 75.46
  A 1.50 1.50 0.0 0 1 205.93 76.96
  L 202.03 76.95
  A 1.41 1.41 0.0 0 1 200.62 75.54
  L 200.63 23.43
  A 1.42 1.41 0.0 0 1 202.05 22.02
  L 205.94 22.03
  A 1.47 1.47 0.0 0 1 207.41 23.50
  L 207.41 27.46
  Z"
/>
<path fill="#363434" d="
  M 324.49 52.81
  Q 324.40 59.68 325.69 62.83
  Q 329.31 71.64 338.92 71.09
  C 344.37 70.79 347.89 67.56 350.32 62.79
  A 0.95 0.95 0.0 0 1 351.64 62.40
  L 354.68 64.15
  A 1.25 1.24 -64.0 0 1 355.21 65.70
  C 351.96 73.62 344.99 78.20 336.30 77.75
  C 316.53 76.73 316.99 53.02 318.24 39.27
  C 319.26 27.98 328.08 20.09 339.67 21.31
  C 354.36 22.86 357.43 38.68 356.49 51.09
  A 1.11 1.10 -87.8 0 1 355.39 52.11
  L 325.20 52.11
  A 0.71 0.70 0.0 0 0 324.49 52.81
  Z
  M 324.94 46.00
  L 349.36 46.00
  A 0.36 0.36 0.0 0 0 349.72 45.64
  L 349.72 41.97
  A 14.13 12.16 90.0 0 0 337.56 27.84
  L 336.74 27.84
  A 14.13 12.16 -90.0 0 0 324.58 41.97
  L 324.58 45.64
  A 0.36 0.36 0.0 0 0 324.94 46.00
  Z"
/>
<path fill="#363434" d="
  M 389.06 71.41
  C 388.29 72.04 387.21 73.58 386.12 74.27
  C 375.30 81.05 358.69 78.37 358.54 62.64
  Q 358.39 48.39 372.01 44.98
  C 376.56 43.83 383.75 44.43 389.13 44.37
  A 0.50 0.50 0.0 0 0 389.63 43.88
  C 389.82 37.55 389.56 29.60 381.56 28.18
  C 375.60 27.11 368.87 28.93 367.53 35.46
  A 1.28 1.27 -78.5 0 1 366.04 36.45
  L 361.23 35.53
  A 1.12 1.11 11.3 0 1 360.34 34.20
  C 362.20 25.51 369.83 21.09 378.33 21.17
  Q 390.85 21.30 394.99 31.31
  Q 396.66 35.35 396.41 45.05
  Q 396.32 48.38 396.39 75.46
  A 1.48 1.48 0.0 0 1 394.91 76.94
  L 390.93 76.94
  A 1.30 1.30 0.0 0 1 389.63 75.64
  L 389.63 71.68
  A 0.35 0.35 0.0 0 0 389.06 71.41
  Z
  M 388.82 50.48
  Q 377.31 50.25 374.81 50.86
  Q 364.94 53.26 365.31 62.21
  C 365.86 75.73 388.04 72.99 389.50 60.90
  Q 389.87 57.86 389.59 51.23
  A 0.78 0.78 0.0 0 0 388.82 50.48
  Z"
/>
<path fill="#363434" d="
  M 435.20 27.48
  A 0.30 0.30 0.0 0 0 435.75 27.66
  Q 440.84 20.38 450.44 21.43
  C 459.87 22.47 464.92 30.19 464.95 39.24
  Q 464.96 45.70 464.96 75.42
  A 1.51 1.50 -90.0 0 1 463.46 76.92
  L 459.70 76.92
  A 1.51 1.50 -90.0 0 1 458.20 75.41
  Q 458.27 53.56 458.19 40.73
  C 458.15 34.51 454.45 28.47 447.81 28.08
  C 442.16 27.75 437.83 30.61 435.92 35.76
  Q 435.18 37.76 435.18 42.58
  Q 435.20 64.20 435.21 75.42
  A 1.50 1.50 0.0 0 1 433.71 76.91
  L 429.82 76.91
  A 1.41 1.41 0.0 0 1 428.41 75.50
  L 428.43 23.45
  A 1.42 1.41 0.0 0 1 429.85 22.04
  L 433.73 22.04
  A 1.47 1.47 0.0 0 1 435.20 23.51
  L 435.20 27.48
  Z"
/>
<path fill="#363434" d="
  M 477.42 52.11
  A 0.71 0.70 -0.0 0 0 476.71 52.81
  Q 476.62 59.68 477.91 62.83
  Q 481.53 71.64 491.15 71.09
  C 496.60 70.79 500.12 67.56 502.54 62.79
  A 0.95 0.95 0.0 0 1 503.86 62.40
  L 506.91 64.15
  A 1.25 1.24 -64.0 0 1 507.44 65.70
  C 504.19 73.62 497.22 78.20 488.53 77.75
  C 468.76 76.73 469.21 53.02 470.46 39.27
  C 471.48 27.98 480.30 20.09 491.89 21.31
  C 506.58 22.85 509.65 38.67 508.71 51.09
  A 1.11 1.10 -87.8 0 1 507.61 52.11
  L 477.42 52.11
  Z
  M 477.18 46.07
  L 501.58 45.95
  A 0.36 0.36 0.0 0 0 501.94 45.58
  L 501.92 42.09
  A 14.25 11.77 89.7 0 0 490.07 27.91
  L 488.49 27.91
  A 14.25 11.77 89.7 0 0 476.80 42.23
  L 476.82 45.72
  A 0.36 0.36 0.0 0 0 477.18 46.07
  Z"
/>
<path fill="#363434" d="
  M 300.16 29.70
  C 303.71 22.78 310.25 19.55 317.68 22.79
  A 1.02 1.02 0.0 0 1 318.27 23.91
  L 317.20 29.46
  A 0.95 0.94 -77.2 0 1 316.03 30.20
  C 310.99 28.88 306.06 29.68 302.83 33.94
  Q 299.77 37.98 299.70 42.28
  Q 299.54 52.37 299.64 75.53
  A 1.38 1.38 0.0 0 1 298.26 76.92
  L 294.21 76.92
  A 1.36 1.35 -0.0 0 1 292.85 75.57
  L 292.85 23.49
  A 1.47 1.46 0.0 0 1 294.32 22.03
  L 298.24 22.03
  A 1.38 1.37 0.0 0 1 299.62 23.40
  L 299.62 29.57
  A 0.29 0.29 0.0 0 0 300.16 29.70
  Z"
/>
<path fill="#363434" d="
  M 547.08 36.52
  A 1.35 1.35 0.0 0 1 545.73 37.86
  L 541.95 37.86
  A 1.29 1.29 0.0 0 1 540.66 36.57
  C 540.66 24.41 516.05 24.67 518.78 37.97
  C 519.42 41.09 523.07 43.18 525.52 44.02
  C 536.66 47.85 549.18 50.33 547.23 64.69
  C 544.69 83.45 510.12 80.90 511.76 61.78
  A 1.27 1.26 -87.5 0 1 513.02 60.62
  L 517.14 60.62
  A 1.15 1.14 -87.9 0 1 518.28 61.85
  C 517.45 73.60 539.39 75.18 540.67 63.37
  C 541.22 58.33 537.21 55.64 532.70 54.23
  Q 527.55 52.62 521.78 50.10
  Q 509.58 44.79 512.59 32.20
  C 516.37 16.39 547.18 18.14 547.08 36.52
  Z"
/>
<path fill="#363434" d="
  M 584.66 36.52
  A 1.35 1.35 0.0 0 1 583.31 37.86
  L 579.53 37.86
  A 1.29 1.29 0.0 0 1 578.24 36.57
  C 578.24 24.41 553.63 24.67 556.36 37.97
  C 557.00 41.09 560.65 43.18 563.10 44.02
  C 574.24 47.85 586.76 50.33 584.81 64.69
  C 582.27 83.45 547.69 80.90 549.34 61.78
  A 1.27 1.26 -87.5 0 1 550.60 60.62
  L 554.72 60.62
  A 1.15 1.14 -87.9 0 1 555.86 61.85
  C 555.02 73.60 576.97 75.18 578.25 63.37
  C 578.80 58.33 574.79 55.64 570.28 54.23
  Q 565.13 52.62 559.36 50.10
  Q 547.16 44.79 550.17 32.20
  C 553.95 16.39 584.76 18.14 584.66 36.52
  Z"
/>
<path fill="#363434" d="
  M 78.96 71.52
  A 0.31 0.30 62.7 0 0 78.41 71.34
  Q 73.31 78.63 63.70 77.58
  C 54.26 76.54 49.20 68.81 49.17 59.75
  Q 49.15 53.28 49.14 23.53
  A 1.51 1.50 90.0 0 1 50.64 22.02
  L 54.41 22.02
  A 1.51 1.50 90.0 0 1 55.91 23.53
  Q 55.85 45.41 55.93 58.26
  C 55.98 64.49 59.68 70.53 66.33 70.92
  C 71.99 71.25 76.32 68.38 78.23 63.23
  Q 78.97 61.22 78.97 56.40
  Q 78.94 34.75 78.93 23.52
  A 1.50 1.50 0.0 0 1 80.43 22.02
  L 84.33 22.02
  A 1.41 1.41 0.0 0 1 85.74 23.43
  L 85.74 75.55
  A 1.42 1.41 -0.0 0 1 84.32 76.96
  L 80.43 76.96
  A 1.47 1.47 0.0 0 1 78.96 75.49
  L 78.96 71.52
  Z"
/>
</svg>
