<svg width="32" height="26" viewBox="0 0 32 26" fill="none" xmlns="http://www.w3.org/2000/svg">
<path fill-rule="evenodd" clip-rule="evenodd" d="M12.0863 2.05394H10.7721L1.28051 13.4681L0.396118 12.739L10.232 0.910675H21.5967L31.4322 12.739L30.548 13.4681L21.0563 2.05394H13.5722L4.1581 13.4678L3.27076 12.7422L12.0863 2.05394ZM11.6115 23.1234V21.9802H20.2171V23.1234H11.6115ZM21.8767 13.8884H23.025V25.1307H8.80339V13.8884H9.95161V23.9874H21.8767V13.8884ZM6.97724 13.2349V12.0917H10.0657L13.0002 9.17699L13.8108 9.98635L10.5405 13.2349H6.97724ZM12.0666 13.2349V12.0917H15.1551L18.0896 9.17699L18.9002 9.98635L15.6302 13.2349H12.0666ZM17.156 13.2349V12.0917H20.2446L23.1791 9.17699L23.9897 9.98635L20.7191 13.2349H17.156ZM23.5924 13.2349V12.0917H27.114V13.2349H23.5924Z" fill="#FFFCEE"/>
</svg>
