<?xml version="1.0" encoding="UTF-8" standalone="no"?><!DOCTYPE svg PUBLIC "-//W3C//DTD SVG 1.1//EN" "http://www.w3.org/Graphics/SVG/1.1/DTD/svg11.dtd"><svg width="100%" height="100%" viewBox="0 0 599 470" version="1.1" xmlns="http://www.w3.org/2000/svg" xmlns:xlink="http://www.w3.org/1999/xlink" xml:space="preserve" xmlns:serif="http://www.serif.com/" style="fill-rule:evenodd;clip-rule:evenodd;stroke-linejoin:round;stroke-miterlimit:2;"><path d="M225.399,22.139l-25.34,-0l-183.007,221.032l-17.052,-14.118l189.647,-229.053l219.119,-0l189.647,229.053l-17.052,14.118l-183.007,-221.032l-144.308,-0l-181.511,221.026l-17.108,-14.05l169.972,-206.976Zm-9.154,408.004l0,-22.139l165.923,0l-0,22.139l-165.923,0Zm197.929,-178.833l22.138,-0l0,217.703l-274.211,0l0,-217.703l22.139,-0l-0,195.565l229.934,-0l-0,-195.565Zm-287.283,-12.655l-0,-22.139l59.549,0l56.577,-56.441l15.636,15.673l-63.059,62.907l-68.703,0Zm98.13,0l-0,-22.139l59.549,0l56.577,-56.441l15.636,15.673l-63.059,62.907l-68.703,0Zm98.13,0l-0,-22.139l59.549,0l56.577,-56.441l15.635,15.673l-63.058,62.907l-68.703,0Zm124.1,0l0,-22.139l67.898,0l0,22.139l-67.898,0Z"/></svg>